<mxfile host="app.diagrams.net" modified="2022-07-07T20:46:39.441Z" agent="5.0 (Windows NT 10.0; Win64; x64) AppleWebKit/537.36 (KHTML, like Gecko) Chrome/103.0.0.0 Safari/537.36" etag="Z4dnbV_fS8iJGl3ReENe" version="20.0.4" type="github">
  <diagram id="C5RBs43oDa-KdzZeNtuy" name="Page-1">
    <mxGraphModel dx="982" dy="532" grid="1" gridSize="10" guides="1" tooltips="1" connect="1" arrows="1" fold="1" page="1" pageScale="1" pageWidth="827" pageHeight="1169" math="0" shadow="0">
      <root>
        <mxCell id="WIyWlLk6GJQsqaUBKTNV-0" />
        <mxCell id="WIyWlLk6GJQsqaUBKTNV-1" parent="WIyWlLk6GJQsqaUBKTNV-0" />
        <mxCell id="JxipMmvkSBYg7e61-BKx-20" value="" style="edgeStyle=orthogonalEdgeStyle;rounded=0;orthogonalLoop=1;jettySize=auto;html=1;" edge="1" parent="WIyWlLk6GJQsqaUBKTNV-1" source="WIyWlLk6GJQsqaUBKTNV-3" target="JxipMmvkSBYg7e61-BKx-14">
          <mxGeometry relative="1" as="geometry" />
        </mxCell>
        <mxCell id="WIyWlLk6GJQsqaUBKTNV-3" value="Start" style="rounded=1;whiteSpace=wrap;html=1;fontSize=12;glass=0;strokeWidth=1;shadow=0;" parent="WIyWlLk6GJQsqaUBKTNV-1" vertex="1">
          <mxGeometry x="290" y="60" width="120" height="40" as="geometry" />
        </mxCell>
        <mxCell id="JxipMmvkSBYg7e61-BKx-0" value="&lt;span style=&quot;color: rgb(199, 37, 78); font-family: Menlo, Monaco, Consolas, &amp;quot;Courier New&amp;quot;, monospace; font-size: 12.6px; text-align: left; background-color: rgb(249, 242, 244);&quot;&gt;int _printf(const char *format, ...);&lt;/span&gt;" style="text;html=1;strokeColor=none;fillColor=none;align=center;verticalAlign=middle;whiteSpace=wrap;rounded=0;" vertex="1" parent="WIyWlLk6GJQsqaUBKTNV-1">
          <mxGeometry x="20" y="65" width="260" height="30" as="geometry" />
        </mxCell>
        <mxCell id="JxipMmvkSBYg7e61-BKx-26" value="" style="edgeStyle=orthogonalEdgeStyle;rounded=0;orthogonalLoop=1;jettySize=auto;html=1;" edge="1" parent="WIyWlLk6GJQsqaUBKTNV-1" source="JxipMmvkSBYg7e61-BKx-2" target="JxipMmvkSBYg7e61-BKx-6">
          <mxGeometry relative="1" as="geometry" />
        </mxCell>
        <mxCell id="JxipMmvkSBYg7e61-BKx-2" value="evalua string" style="rounded=1;whiteSpace=wrap;html=1;" vertex="1" parent="WIyWlLk6GJQsqaUBKTNV-1">
          <mxGeometry x="290" y="190" width="120" height="30" as="geometry" />
        </mxCell>
        <mxCell id="JxipMmvkSBYg7e61-BKx-12" value="" style="edgeStyle=orthogonalEdgeStyle;rounded=0;orthogonalLoop=1;jettySize=auto;html=1;" edge="1" parent="WIyWlLk6GJQsqaUBKTNV-1" source="JxipMmvkSBYg7e61-BKx-6" target="JxipMmvkSBYg7e61-BKx-7">
          <mxGeometry relative="1" as="geometry" />
        </mxCell>
        <mxCell id="JxipMmvkSBYg7e61-BKx-27" value="" style="edgeStyle=orthogonalEdgeStyle;rounded=0;orthogonalLoop=1;jettySize=auto;html=1;" edge="1" parent="WIyWlLk6GJQsqaUBKTNV-1" source="JxipMmvkSBYg7e61-BKx-6" target="JxipMmvkSBYg7e61-BKx-13">
          <mxGeometry relative="1" as="geometry" />
        </mxCell>
        <mxCell id="JxipMmvkSBYg7e61-BKx-6" value="encuentra especificadores: %" style="rhombus;whiteSpace=wrap;html=1;" vertex="1" parent="WIyWlLk6GJQsqaUBKTNV-1">
          <mxGeometry x="300" y="250" width="100" height="100" as="geometry" />
        </mxCell>
        <mxCell id="JxipMmvkSBYg7e61-BKx-7" value="imprime solo la string" style="rounded=0;whiteSpace=wrap;html=1;" vertex="1" parent="WIyWlLk6GJQsqaUBKTNV-1">
          <mxGeometry x="140" y="265" width="120" height="30" as="geometry" />
        </mxCell>
        <mxCell id="JxipMmvkSBYg7e61-BKx-13" value="cuenta &#39;%&#39; == parametros" style="rounded=0;whiteSpace=wrap;html=1;" vertex="1" parent="WIyWlLk6GJQsqaUBKTNV-1">
          <mxGeometry x="275" y="370" width="150" height="30" as="geometry" />
        </mxCell>
        <mxCell id="JxipMmvkSBYg7e61-BKx-25" style="edgeStyle=orthogonalEdgeStyle;rounded=0;orthogonalLoop=1;jettySize=auto;html=1;entryX=0.5;entryY=0;entryDx=0;entryDy=0;" edge="1" parent="WIyWlLk6GJQsqaUBKTNV-1" source="JxipMmvkSBYg7e61-BKx-14" target="JxipMmvkSBYg7e61-BKx-2">
          <mxGeometry relative="1" as="geometry" />
        </mxCell>
        <mxCell id="JxipMmvkSBYg7e61-BKx-14" value="ingresa el string y parametros variables" style="rounded=1;whiteSpace=wrap;html=1;" vertex="1" parent="WIyWlLk6GJQsqaUBKTNV-1">
          <mxGeometry x="290" y="130" width="120" height="30" as="geometry" />
        </mxCell>
      </root>
    </mxGraphModel>
  </diagram>
</mxfile>
